<svg width="35" height="35" viewBox="0 0 35 35" fill="none" xmlns="http://www.w3.org/2000/svg">
<path d="M31.2215 14.7741L20.1642 4.94705C19.3729 4.24387 18.351 3.85547 17.2924 3.85547C16.2338 3.85547 15.2119 4.24387 14.4206 4.94705L3.36473 14.7741C3.14687 14.9686 2.99316 15.2246 2.92393 15.5083C2.8547 15.792 2.87321 16.0901 2.97702 16.363C3.08082 16.636 3.26503 16.871 3.50528 17.037C3.74553 17.203 4.03051 17.2922 4.32253 17.2927H7.20489V27.381C7.20614 28.5273 7.66206 29.6262 8.47261 30.4368C9.28315 31.2473 10.3821 31.7033 11.5284 31.7045H12.9696V23.0575C12.9696 17.3446 21.6166 17.342 21.6166 23.0575V31.7045H23.0578C24.2041 31.7033 25.3031 31.2473 26.1136 30.4368C26.9242 29.6262 27.3801 28.5273 27.3814 27.381V17.2927H30.2637C30.5557 17.2922 30.8407 17.203 31.081 17.037C31.3212 16.871 31.5054 16.636 31.6092 16.363C31.713 16.0901 31.7315 15.792 31.6623 15.5083C31.5931 15.2246 31.4394 14.9686 31.2215 14.7741Z" fill="#40189D"/>
</svg>
