<svg width="35" height="35" viewBox="0 0 35 35" fill="none" xmlns="http://www.w3.org/2000/svg">
<g clip-path="url(#clip0)">
<path d="M27.8786 32.7603C28.1752 32.7603 28.4678 32.8731 28.6904 33.0881C30.1134 34.4622 32.1891 34.9197 34.0344 34.3471C32.8468 31.8731 32.6823 29.0387 33.6025 26.4144C34.7446 23.1492 35.0308 19.8765 33.731 16.5943C32.5891 13.7109 30.3855 11.3153 27.5966 9.94922C27.7682 10.8639 27.8546 11.7959 27.8546 12.7378C27.8547 16.7355 26.3174 20.4955 23.5262 23.3253C20.7347 26.1553 16.9926 27.7466 12.9896 27.8061C12.2458 27.8178 11.5054 27.774 10.7734 27.6775C12.9735 31.5339 17.1227 34.0455 21.6822 34.1131C23.6767 34.1439 25.5918 33.726 27.3754 32.8743C27.536 32.7975 27.708 32.7603 27.8786 32.7603Z" fill="#40189D"/>
<path d="M13.0217 0.00254139C5.92036 -0.138466 0.0171614 5.60643 3.85062e-05 12.7063C-0.0041566 14.4409 0.334449 16.1227 1.00652 17.7052C1.01628 17.7282 1.02536 17.7515 1.03358 17.7752C1.95385 20.3995 1.78938 23.2338 0.601737 25.7078C2.44716 26.2803 4.52262 25.823 5.9457 24.4488C6.2963 24.1101 6.82086 24.0248 7.26074 24.2351C9.04401 25.0868 10.9594 25.506 12.9538 25.474C19.9997 25.3693 25.5188 19.7749 25.5187 12.7376C25.5188 5.85395 19.9126 0.141066 13.0217 0.00254139ZM5.95341 14.64C4.93314 14.64 4.10602 13.8142 4.10602 12.7957C4.10602 11.7771 4.93314 10.9513 5.95341 10.9513C6.97368 10.9513 7.8008 11.7771 7.8008 12.7957C7.80071 13.8142 6.97368 14.64 5.95341 14.64ZM12.7594 14.64C11.7391 14.64 10.912 13.8142 10.912 12.7957C10.912 11.7771 11.7391 10.9513 12.7594 10.9513C13.7797 10.9513 14.6068 11.7771 14.6068 12.7957C14.6068 13.8142 13.7797 14.64 12.7594 14.64ZM19.5655 14.64C18.5452 14.64 17.7181 13.8142 17.7181 12.7957C17.7181 11.7771 18.5452 10.9513 19.5655 10.9513C20.5858 10.9513 21.4129 11.7771 21.4129 12.7957C21.4129 13.8142 20.5858 14.64 19.5655 14.64Z" fill="#40189D"/>
</g>
<defs>
<clipPath id="clip0">
<rect width="34.5882" height="34.5882" fill="white"/>
</clipPath>
</defs>
</svg>
