<svg width="35" height="35" viewBox="0 0 35 35" fill="none" xmlns="http://www.w3.org/2000/svg">
<g clip-path="url(#clip0)">
<path d="M19.4636 30.263C11.1089 30.263 4.33594 23.4902 4.33594 15.1354C4.33594 6.78058 11.1088 0.0078125 19.4636 0.0078125C27.8184 0.0078125 34.5912 6.78065 34.5912 15.1355C34.5912 23.4903 27.8183 30.263 19.4636 30.263ZM19.4636 4.33002C13.4959 4.33002 8.65814 9.16775 8.65814 15.1355C8.65814 21.1032 13.4959 25.9409 19.4636 25.9409C25.4313 25.9409 30.269 21.1032 30.269 15.1355C30.269 9.16775 25.4312 4.33002 19.4636 4.33002Z" fill="#40189D"/>
<path d="M2.17362 34.5858C1.59918 34.5891 1.04708 34.3636 0.63926 33.959C-0.208183 33.1185 -0.21377 31.7502 0.626746 30.9028C0.630917 30.8986 0.635088 30.8945 0.63926 30.8903L8.76494 22.7646C9.64218 21.9172 11.0403 21.9414 11.8877 22.8186C12.7352 23.6959 12.711 25.094 11.8337 25.9414L3.70799 33.959C3.30017 34.3636 2.74807 34.5891 2.17362 34.5858Z" fill="#40189D"/>
</g>
<defs>
<clipPath id="clip0">
<rect width="34.59" height="34.59" fill="white"/>
</clipPath>
</defs>
</svg>
