<svg width="28" height="28" viewBox="0 0 28 28" fill="none" xmlns="http://www.w3.org/2000/svg">
<g clip-path="url(#clip0)">
<path d="M22.5697 26.5208C22.8098 26.5208 23.0467 26.6121 23.2269 26.7862C24.3788 27.8986 26.0592 28.2689 27.5529 27.8053C26.5916 25.8026 26.4584 23.5081 27.2034 21.3836C28.1279 18.7404 28.3596 16.0911 27.3074 13.434C26.383 11.0998 24.5991 9.16055 22.3414 8.05469C22.4803 8.79516 22.5503 9.54964 22.5503 10.3121C22.5504 13.5484 21.3059 16.5922 19.0463 18.8829C16.7865 21.1739 13.7573 22.4621 10.5167 22.5103C9.9146 22.5197 9.31523 22.4843 8.72266 22.4062C10.5036 25.528 13.8625 27.5612 17.5535 27.6159C19.1682 27.6409 20.7185 27.3026 22.1623 26.6131C22.2923 26.5509 22.4316 26.5208 22.5697 26.5208Z" fill="#3E4954"/>
<path d="M10.5414 0.00205732C4.79267 -0.112091 0.0138926 4.53854 3.11717e-05 10.286C-0.00336487 11.6903 0.270744 13.0517 0.814803 14.3328C0.822704 14.3514 0.830051 14.3703 0.836704 14.3894C1.58168 16.5139 1.44855 18.8083 0.48712 20.8111C1.98103 21.2745 3.66117 20.9043 4.81319 19.7919C5.097 19.5177 5.52164 19.4487 5.87774 19.6189C7.32134 20.3084 8.87187 20.6477 10.4864 20.6218C16.1902 20.5371 20.6581 16.0082 20.658 10.3114C20.6581 4.73891 16.1197 0.114196 10.5414 0.00205732ZM4.81943 11.8514C3.9935 11.8514 3.32392 11.1829 3.32392 10.3584C3.32392 9.53384 3.9935 8.86537 4.81943 8.86537C5.64536 8.86537 6.31493 9.53384 6.31493 10.3584C6.31486 11.1829 5.64536 11.8514 4.81943 11.8514ZM10.3291 11.8514C9.50312 11.8514 8.83355 11.1829 8.83355 10.3584C8.83355 9.53384 9.50312 8.86537 10.3291 8.86537C11.155 8.86537 11.8246 9.53384 11.8246 10.3584C11.8246 11.1829 11.155 11.8514 10.3291 11.8514ZM15.8387 11.8514C15.0128 11.8514 14.3432 11.1829 14.3432 10.3584C14.3432 9.53384 15.0128 8.86537 15.8387 8.86537C16.6647 8.86537 17.3342 9.53384 17.3342 10.3584C17.3342 11.1829 16.6647 11.8514 15.8387 11.8514Z" fill="#3E4954"/>
</g>
<defs>
<clipPath id="clip0">
<rect width="28" height="28" fill="white"/>
</clipPath>
</defs>
</svg>
