<svg width="35" height="35" viewBox="0 0 35 35" fill="none" xmlns="http://www.w3.org/2000/svg">
<g clip-path="url(#clip0)">
<path d="M17.5837 1C12.8693 1 9.01562 4.85372 9.01562 9.56804C9.01562 14.2823 12.8693 18.1361 17.5837 18.1361C22.298 18.1361 26.1517 14.2823 26.1517 9.56804C26.1517 4.85372 22.298 1 17.5837 1Z" fill="#BFBFBF"/>
<path d="M32.2883 24.984C32.0638 24.4228 31.7646 23.899 31.4278 23.4126C29.7067 20.8683 27.0503 19.1847 24.0571 18.7731C23.683 18.7357 23.2714 18.8105 22.9721 19.035C21.4006 20.1949 19.5299 20.7935 17.5843 20.7935C15.6387 20.7935 13.768 20.1949 12.1965 19.035C11.8972 18.8105 11.4856 18.6983 11.1115 18.7731C8.1183 19.1847 5.42444 20.8683 3.74079 23.4126C3.40406 23.899 3.10471 24.4602 2.88027 24.984C2.76805 25.2085 2.80543 25.4704 2.91765 25.6949C3.217 26.2187 3.59111 26.7426 3.92784 27.1915C4.45163 27.9024 5.01288 28.5385 5.64896 29.1371C6.17274 29.6609 6.77137 30.1473 7.37007 30.6337C10.3258 32.8412 13.8803 34.001 17.5469 34.001C21.2136 34.001 24.768 32.8411 27.7238 30.6337C28.3224 30.1847 28.921 29.6609 29.4449 29.1371C30.0435 28.5385 30.6421 27.9024 31.166 27.1915C31.5401 26.7051 31.8769 26.2187 32.1762 25.6949C32.3632 25.4704 32.4006 25.2085 32.2883 24.984Z" fill="#BFBFBF"/>
</g>
<defs>
<clipPath id="clip0">
<rect width="34.5882" height="34.5882" fill="white" transform="translate(0 0.175781)"/>
</clipPath>
</defs>
</svg>
