<svg width="35" height="35" viewBox="0 0 35 35" fill="none" xmlns="http://www.w3.org/2000/svg">
<g clip-path="url(#clip0)">
<path d="M19.4628 30.4373C11.1085 30.4373 4.33594 23.6648 4.33594 15.3104C4.33594 6.95601 11.1084 0.183594 19.4628 0.183594C27.8172 0.183594 34.5897 6.95609 34.5897 15.3105C34.5897 23.6648 27.8171 30.4373 19.4628 30.4373ZM19.4628 4.50558C13.4954 4.50558 8.65792 9.34306 8.65792 15.3105C8.65792 21.2779 13.4954 26.1153 19.4628 26.1153C25.4302 26.1153 30.2677 21.2779 30.2677 15.3105C30.2677 9.34306 25.4301 4.50558 19.4628 4.50558Z" fill="#BFBFBF"/>
<path d="M2.17351 34.7609C1.5991 34.7642 1.04702 34.5387 0.639227 34.1342C-0.208173 33.2937 -0.213759 31.9255 0.626714 31.0781C0.630885 31.074 0.635056 31.0698 0.639227 31.0656L8.76449 22.9404C9.64168 22.093 11.0397 22.1172 11.8871 22.9944C12.7345 23.8716 12.7103 25.2696 11.8331 26.117L3.7078 34.1342C3.3 34.5387 2.74793 34.7642 2.17351 34.7609Z" fill="#BFBFBF"/>
</g>
<defs>
<clipPath id="clip0">
<rect width="34.5882" height="34.5882" fill="white" transform="translate(0 0.175781)"/>
</clipPath>
</defs>
</svg>
