<svg width="35" height="36" viewBox="0 0 35 36" fill="none" xmlns="http://www.w3.org/2000/svg">
<path d="M33.0003 23.6567C33.0003 19.6857 30.7222 16.1418 27.3104 14.418C27.2045 22.0317 21.0317 28.2045 13.418 28.3104C15.1418 31.7222 18.6857 34.0003 22.6567 34.0003C24.5184 34.0003 26.329 33.5045 27.9198 32.5623L32.9551 33.9551L31.5623 28.9198C32.5045 27.329 33.0003 25.5184 33.0003 23.6567Z" fill="#BFBFBF"/>
<path d="M25.4373 14.2186C25.4373 7.48115 19.9561 2 13.2186 2C6.48115 2 1 7.48115 1 14.2186C1 16.4144 1.58447 18.5523 2.69432 20.4293L1.04492 26.3921L7.008 24.7429C8.88493 25.8528 11.0229 26.4373 13.2186 26.4373C19.9561 26.4373 25.4373 20.9561 25.4373 14.2186ZM11.3437 11.3749H9.46867C9.46867 9.30706 11.1508 7.62495 13.2186 7.62495C15.2865 7.62495 16.9686 9.30706 16.9686 11.3749C16.9686 12.4245 16.5243 13.4332 15.7491 14.1422L14.1561 15.6002V17.0624H12.2811V14.7745L14.4833 12.7589C14.8768 12.3988 15.0936 11.9074 15.0936 11.3749C15.0936 10.341 14.2526 9.49993 13.2186 9.49993C12.1847 9.49993 11.3437 10.341 11.3437 11.3749ZM12.2811 18.9373H14.1561V20.8123H12.2811V18.9373Z" fill="#BFBFBF"/>
</svg>
