<svg width="35" height="35" viewBox="0 0 35 35" fill="none" xmlns="http://www.w3.org/2000/svg">
<g clip-path="url(#clip0)">
<path d="M29.3914 15.9218C28.783 15.9218 28.2115 16.0232 27.6768 16.2352V7.2563H18.7163C18.9099 6.72162 19.0113 6.13163 19.0113 5.5232C19.0113 2.66543 16.6974 0.351562 13.8396 0.351562C10.9819 0.351562 8.668 2.66543 8.668 5.5232C8.668 6.13163 8.7694 6.71241 8.96299 7.2563H0.0117188V17.2769C0.924361 16.4473 2.14122 15.931 3.4687 15.931C6.32647 15.931 8.64034 18.2449 8.64034 21.1027C8.64034 23.9604 6.32647 26.2743 3.4687 26.2743C2.14122 26.2743 0.924361 25.7581 0.0117188 24.9284V34.9398H27.686V25.9609C28.2207 26.1637 28.7922 26.2743 29.4007 26.2743C32.2676 26.2743 34.5723 23.9604 34.5723 21.1027C34.5723 18.2449 32.2676 15.9218 29.3914 15.9218Z" fill="#BFBFBF"/>
</g>
<defs>
<clipPath id="clip0">
<rect width="34.5882" height="34.5882" fill="white" transform="translate(0 0.351562)"/>
</clipPath>
</defs>
</svg>
